<?xml version="1.0" standalone="no"?>
<!DOCTYPE svg PUBLIC "-//W3C//DTD SVG 20010904//EN"
 "http://www.w3.org/TR/2001/REC-SVG-20010904/DTD/svg10.dtd">
<svg version="1.0" xmlns="http://www.w3.org/2000/svg"
 width="512.000000pt" height="512.000000pt" viewBox="0 0 512.000000 512.000000"
 preserveAspectRatio="xMidYMid meet">
<metadata>
Created by potrace 1.14, written by Peter Selinger 2001-2017
</metadata>
<g transform="translate(0.000000,512.000000) scale(0.100000,-0.100000)"
fill="#000000" stroke="none">
<path d="M2390 4769 c-302 -41 -481 -94 -718 -216 -160 -81 -275 -158 -343
-228 -30 -31 -82 -78 -116 -105 -68 -54 -243 -265 -306 -369 -22 -36 -60 -109
-84 -161 -25 -52 -50 -106 -57 -120 -25 -46 -84 -224 -100 -300 -51 -239 -48
-527 8 -785 24 -113 101 -338 145 -425 79 -156 208 -338 374 -525 42 -48 77
-93 77 -100 0 -30 -133 -114 -231 -146 -35 -11 -92 -36 -126 -55 -73 -40 -118
-43 -238 -15 -118 28 -155 14 -171 -66 -5 -26 -1 -33 24 -52 26 -18 29 -25 22
-49 -14 -50 -34 -72 -75 -84 -22 -6 -55 -22 -74 -36 -31 -23 -33 -27 -27 -69
8 -57 33 -111 61 -129 31 -20 144 -29 197 -16 24 6 79 32 123 57 l80 45 5
-142 c4 -127 8 -149 31 -199 52 -109 187 -211 341 -256 42 -12 85 -26 95 -31
10 -5 37 -19 59 -31 46 -23 97 -35 231 -51 113 -14 404 -38 608 -50 88 -5 217
-14 286 -21 151 -13 245 -9 399 20 99 19 146 22 335 20 121 -1 272 3 335 9 63
7 149 12 190 12 83 0 239 22 284 39 27 11 28 13 12 30 -9 9 -16 20 -16 23 0 4
32 18 70 33 120 46 215 127 266 226 20 40 24 63 24 131 0 46 -7 112 -15 147
-9 35 -14 65 -12 67 2 2 19 -8 38 -22 78 -60 162 -78 249 -55 19 6 54 15 78
21 37 10 46 17 63 53 26 59 25 129 -3 162 -19 20 -35 26 -88 31 -71 7 -90 21
-90 66 0 20 8 31 29 43 32 16 61 51 61 73 0 7 -11 24 -24 37 -24 24 -25 24
-179 18 l-154 -6 -79 40 c-43 23 -127 65 -186 93 -97 49 -158 90 -158 108 0
10 20 38 105 148 110 144 170 232 218 324 24 47 53 101 64 120 63 116 133 319
163 480 68 355 25 761 -109 1035 -21 44 -53 111 -71 148 -76 163 -240 373
-411 527 -284 257 -553 406 -881 490 -164 43 -447 60 -608 39z m205 -179 c3
-5 10 -35 15 -66 10 -62 17 -75 29 -55 7 10 16 9 47 -7 28 -14 66 -21 131 -24
l91 -5 17 64 c23 86 38 81 33 -12 -4 -72 -3 -75 17 -75 24 0 72 -37 67 -52 -1
-5 2 -7 8 -3 6 4 27 1 48 -6 54 -19 63 -21 105 -22 23 0 37 -6 37 -14 0 -7 3
-13 6 -13 10 0 43 41 66 82 20 35 38 49 38 30 0 -5 -9 -35 -20 -67 -11 -32
-20 -59 -20 -61 0 -9 67 -64 77 -64 19 0 53 -32 46 -43 -3 -6 -1 -7 5 -3 6 3
17 -1 25 -9 9 -8 21 -15 27 -15 6 0 9 -4 5 -9 -6 -10 11 -24 33 -27 7 -2 23
-13 35 -26 30 -33 82 -36 114 -7 18 17 23 19 23 7 0 -8 -9 -23 -20 -33 -14
-13 -17 -22 -10 -35 5 -10 7 -20 4 -22 -2 -3 3 -11 13 -19 14 -12 16 -12 8 0
-5 10 -4 12 4 7 6 -4 9 -11 6 -15 -5 -10 50 -61 66 -61 5 0 7 -4 4 -10 -3 -5
0 -7 8 -4 17 6 26 -5 32 -38 3 -13 12 -28 20 -34 8 -6 15 -14 15 -17 0 -13 34
-46 42 -41 4 3 8 -1 8 -8 0 -7 9 -19 20 -26 12 -7 25 -23 31 -35 5 -12 16 -33
24 -47 8 -14 10 -27 5 -30 -5 -3 0 -21 12 -40 12 -19 22 -39 23 -45 1 -20 50
-36 93 -30 43 6 60 -8 23 -20 -10 -3 -31 -17 -45 -30 -24 -23 -25 -30 -4 -26
17 2 33 -48 34 -104 1 -33 6 -78 12 -100 23 -92 42 -202 48 -280 l7 -83 46
-12 c69 -18 71 -19 71 -28 0 -5 -17 -12 -39 -16 -43 -7 -83 -34 -87 -60 -1 -9
2 -14 7 -10 5 3 10 -6 10 -20 1 -14 2 -32 2 -38 3 -49 -26 -145 -48 -160 -6
-4 -1 -16 11 -30 12 -13 24 -31 28 -42 6 -17 2 -18 -28 -13 -35 6 -35 5 -33
-32 1 -46 -20 -101 -38 -95 -7 3 -16 0 -21 -7 -4 -7 -3 -14 2 -16 14 -5 -7
-93 -21 -93 -6 0 -12 -11 -13 -25 -1 -19 8 -30 45 -52 59 -34 41 -41 -37 -13
-34 12 -63 20 -66 18 -8 -9 -100 -163 -109 -183 -4 -11 -8 -23 -7 -27 2 -11
-133 -163 -144 -161 -5 2 -10 22 -12 45 -5 74 -27 181 -89 438 -19 78 -81 206
-123 254 -47 53 -154 129 -257 180 -50 25 -94 46 -97 46 -3 0 -53 22 -110 50
-58 27 -118 52 -133 56 -69 15 -66 11 -59 71 5 44 14 64 45 101 48 58 67 96
81 157 7 29 20 55 35 67 31 24 65 116 65 177 0 37 -6 54 -23 73 -22 23 -25 38
-30 149 -7 151 -20 197 -81 276 -88 116 -230 156 -424 120 -131 -25 -277 -115
-328 -203 -25 -42 -27 -57 -32 -184 -4 -119 -7 -142 -23 -156 -30 -27 -26
-130 6 -195 14 -27 34 -58 44 -68 10 -10 25 -42 35 -71 19 -58 71 -144 105
-174 16 -15 21 -31 21 -71 l0 -52 -47 -18 c-27 -10 -102 -46 -168 -81 -66 -34
-144 -72 -173 -83 -135 -53 -262 -166 -317 -283 -20 -42 -43 -116 -55 -173
-11 -55 -24 -116 -30 -135 -22 -72 -60 -274 -60 -318 0 -44 0 -44 -22 -30 -12
8 -26 28 -30 44 -4 16 -30 51 -58 77 -27 26 -47 47 -44 47 4 0 1 7 -6 15 -7 8
-16 13 -20 10 -5 -3 -12 0 -16 6 -4 8 -3 9 4 5 8 -4 10 -2 6 8 -3 8 -11 13
-18 10 -13 -5 -66 65 -66 86 0 6 -6 8 -13 4 -7 -5 -6 0 3 11 8 10 10 16 4 12
-14 -8 -74 65 -74 90 0 11 -6 25 -12 32 -10 11 -10 13 0 7 6 -4 12 -3 12 2 0
6 -7 13 -16 16 -9 4 -14 13 -10 21 3 8 1 15 -4 15 -6 0 -10 9 -10 20 0 14 -7
20 -24 20 -18 0 -26 7 -31 28 -3 15 -13 41 -20 57 -8 17 -15 39 -17 50 -2 16
-13 21 -48 25 -29 3 -39 7 -29 12 26 10 46 60 44 111 0 26 3 47 7 47 8 0 3 54
-7 70 -4 6 -9 34 -11 62 -1 28 -8 54 -15 58 -6 4 -39 11 -73 15 -61 7 -61 7
-31 21 17 7 37 13 46 14 19 0 43 72 41 123 0 18 4 52 9 77 6 25 12 60 14 78 2
17 19 89 38 160 20 70 38 140 42 156 5 23 9 26 15 16 5 -8 12 -11 17 -7 4 5
-3 17 -17 28 l-25 19 38 33 c20 18 37 37 37 41 0 7 22 37 63 86 6 8 11 17 10
20 -5 16 37 82 81 125 71 70 109 114 131 155 25 43 41 61 49 53 16 -16 3 22
-19 57 -29 46 -20 51 24 14 17 -14 37 -27 43 -28 7 -1 19 -5 26 -9 7 -5 12 -4
12 2 0 6 9 11 20 11 25 0 92 58 83 73 -3 6 -1 7 5 3 6 -4 19 5 28 19 9 14 21
25 26 25 13 0 38 26 38 39 0 10 14 15 33 12 4 0 7 6 7 15 0 9 7 14 18 12 10
-2 16 -11 14 -21 -4 -21 11 -22 28 -2 10 12 10 15 -4 15 -11 0 -16 9 -16 29 0
16 -9 48 -20 72 -11 24 -20 53 -20 63 0 16 4 15 25 -10 15 -16 34 -42 43 -57
12 -21 23 -27 40 -24 12 2 22 0 22 -4 0 -5 5 -9 11 -9 6 0 9 6 6 14 -4 10 2
13 24 12 16 -1 29 1 29 4 0 3 21 11 48 19 26 7 57 17 70 22 13 5 32 9 42 9 11
0 20 7 20 15 0 8 7 16 15 16 52 5 58 14 51 82 -6 69 7 67 34 -6 l15 -42 60 -3
c39 -2 63 -8 68 -18 10 -18 51 -18 67 1 7 8 16 12 21 9 5 -3 8 0 7 8 -2 9 11
14 43 16 l47 3 6 69 c7 65 16 84 31 60z m-169 -163 c4 -4 -2 -7 -14 -7 -11 0
-23 4 -26 8 -6 10 30 9 40 -1z m-1436 -923 c0 -9 -28 -3 -46 11 -17 13 -16 14
14 4 17 -6 32 -13 32 -15z m1918 -827 c3 -16 -101 -139 -185 -219 -61 -57
-120 -98 -142 -98 -12 0 -11 3 5 13 96 55 252 216 282 290 15 38 34 44 40 14z
m-609 -46 c22 -32 86 -102 143 -157 57 -54 85 -85 63 -69 -129 92 -242 206
-259 263 -13 41 12 23 53 -37z m1424 -1573 l42 -22 -40 -8 c-33 -7 -42 -6 -52
9 -16 20 -17 43 -3 43 6 0 30 -10 53 -22z m-2081 6 c38 -5 45 -9 41 -25 -6
-23 -42 -24 -178 -5 -96 13 -95 15 30 29 55 7 62 7 107 1z"/>
<path d="M2200 4390 c0 -5 5 -10 10 -10 6 0 10 5 10 10 0 6 -4 10 -10 10 -5 0
-10 -4 -10 -10z"/>
<path d="M1940 4289 c0 -5 5 -7 10 -4 6 3 10 8 10 11 0 2 -4 4 -10 4 -5 0 -10
-5 -10 -11z"/>
<path d="M3320 4230 c0 -5 5 -10 10 -10 6 0 10 5 10 10 0 6 -4 10 -10 10 -5 0
-10 -4 -10 -10z"/>
<path d="M1300 3829 c0 -5 5 -7 10 -4 6 3 10 8 10 11 0 2 -4 4 -10 4 -5 0 -10
-5 -10 -11z"/>
<path d="M1120 3570 c0 -5 5 -10 10 -10 6 0 10 5 10 10 0 6 -4 10 -10 10 -5 0
-10 -4 -10 -10z"/>
<path d="M980 2530 c0 -5 5 -10 11 -10 5 0 7 5 4 10 -3 6 -8 10 -11 10 -2 0
-4 -4 -4 -10z"/>
<path d="M1156 2265 c4 -8 8 -15 10 -15 2 0 4 7 4 15 0 8 -4 15 -10 15 -5 0
-7 -7 -4 -15z"/>
</g>
</svg>
